<?xml version="1.0" standalone="no"?>
<!DOCTYPE svg PUBLIC "-//W3C//DTD SVG 20010904//EN"
 "http://www.w3.org/TR/2001/REC-SVG-20010904/DTD/svg10.dtd">
<svg version="1.0" xmlns="http://www.w3.org/2000/svg"
 width="400.000000pt" height="400.000000pt" viewBox="0 0 400.000000 400.000000"
 preserveAspectRatio="xMidYMid meet">
<metadata>
Created by potrace 1.11, written by Peter Selinger 2001-2013
</metadata>
<g transform="translate(0.000000,400.000000) scale(0.100000,-0.100000)"
fill="#000000" stroke="none">
<path d="M1105 3739 c-371 -193 -665 -491 -850 -859 -144 -287 -206 -557 -206
-890 0 -199 16 -327 62 -499 145 -545 524 -1003 1034 -1252 367 -178 786 -238
1185 -170 496 86 941 357 1241 757 431 576 509 1362 199 2013 -85 177 -166
300 -301 456 l-74 87 -53 -6 c-29 -2 -60 -10 -69 -18 -16 -13 -16 -34 3 -220
l7 -68 -40 -40 c-60 -59 -90 -56 -167 18 -76 73 -130 104 -250 147 -258 93
-477 115 -554 58 -30 -23 -53 -64 -101 -182 -57 -142 -123 -193 -250 -193 -91
0 -139 22 -205 93 -62 67 -80 111 -74 183 9 105 49 141 203 176 50 12 111 28
138 36 l47 16 0 47 c0 102 -90 214 -223 276 -121 57 -170 66 -407 71 l-215 5
-80 -42z m494 -1963 c66 -18 119 -53 162 -107 91 -112 74 -103 196 -109 92 -5
113 -9 141 -28 51 -37 65 -73 60 -161 -7 -142 -83 -250 -259 -364 -145 -95
-249 -127 -409 -127 -113 0 -185 20 -298 82 -166 92 -230 189 -240 361 -4 86
-3 90 32 162 61 123 203 237 356 286 67 22 186 24 259 5z"/>
</g>
</svg>
